<?xml version="1.0" encoding="UTF-8"?>
<svg id="Layer_2" data-name="Layer 2" xmlns="http://www.w3.org/2000/svg" viewBox="0 0 81.15 55.07">
  <defs>
    <style>
      .cls-1 {
        fill: #21201f;
      }

      .cls-2 {
        fill: #e0dfde;
      }

      .cls-3 {
        fill: #c6c4c4;
      }

      .cls-4 {
        fill: #e6e5e5;
      }

      .cls-5 {
        fill: #3d3a3a;
      }

      .cls-6 {
        fill: #151413;
      }

      .cls-7 {
        fill: #dedddd;
      }

      .cls-8 {
        fill: #f1f1f0;
      }

      .cls-9 {
        fill: #f1f0f0;
      }

      .cls-10 {
        fill: #cccaca;
      }

      .cls-11 {
        fill: #d5d3d3;
      }

      .cls-12 {
        fill: #f3f2f2;
      }

      .cls-13 {
        fill: #506bb3;
      }

      .cls-14 {
        fill: #040404;
      }

      .cls-15 {
        fill: #f2f1f1;
      }

      .cls-16 {
        fill: #cac8c8;
      }

      .cls-17 {
        fill: #e7e6e5;
      }

      .cls-18 {
        fill: #eaebf6;
      }

      .cls-19 {
        fill: #4f6bb2;
      }

      .cls-20 {
        fill: #f4f3f3;
      }

      .cls-21 {
        fill: #070606;
      }

      .cls-22 {
        fill: #1b1a1a;
      }

      .cls-23 {
        fill: #e2e1e1;
      }

      .cls-24 {
        fill: #4f6ab2;
      }
    </style>
  </defs>
  <g id="Layer_2-2" data-name="Layer 2">
    <path class="cls-14" d="M68.3,12.68c-.29-.6-.49-1.85-.49-2.58,0-.63.49-.45.36-.82-.12-.34-.83-.41-.94-1.1-.09-.59-.1-2.87-.01-3.47.04-.27.21-.4.24-.6.05-.3-.05-.65,0-.93.02-.1.2-.1.23-.17.16-.32.43-.84.65-1.12.18-.22,1.44-1.56,1.58-1.66.63-.41.96-.16,1.54-.14.73.02,1.53-.25,1.86.53.39.9-.17.75-.51,1.3-.66,1.05-.85,3-.21,4.07.11.18.55.44.72.62,1.71,1.91,4.43,3.42,5.95,5.36.31.39.85,1.71,1.23,2.19.14.17.36.15.5.46.33.74-.02,2.18-.02,3.01,0,.45.34,1.29.02,1.69-.12.15-.4.15-.55.29-.1.1-.1.3-.18.39-.8.95-1.81,2.05-3.18,2.01-.96-.02-2.51-.76-2.7.77-.06.52.14,1.47.31,1.97.11.33,1.04,1.31,1.28,1.71,1.04,1.81,2.45,5.42,2.72,7.46.07.5-.07,1.08,0,1.56.23,1.67.53,3.01.16,4.7-.24,1.09-.31,1.54-1.05,2.42-1.1,1.32-3.13,2.93-4.58,3.93-.71.49-1.74.94-2.38,1.45-.93.74-2.08,2.11-3.38,2.37-.44.09-1-.06-1.39.05-.43.13-.95.77-1.95.93-2.45.39-4.07.69-6.55.21-1.51-.29-3.13-.37-4.68-.71-.48-.1-2.56-1.35-3.41-1.62-2.1-.66-4-.2-5.83-1.71-.28-.23-.44-.62-.67-.77-1.51-1-5.53-.66-7.15.03-.45.19-.71.64-1.24.57-2.01-.25-3.26-1.56-4.92-2.39-.41-.2-.85-.27-1.23-.45-.82-.38-.64-.84-1.8-.7-2.87.34-5.52,2.75-8.4.59-.13-.1-.51-.66-.57-.68-.09-.03-1.15-.27-1.24-.27-.78-.04-1.31.8-1.45.83-.75.19-2.34-.02-3.21,0-.71,0-1.94.35-2.61-.02-.16-.09-.15-.28-.37-.36-.33-.13-.76.07-1.18,0-.28-.04-.51-.23-.78-.3-.75-.18-1.96-.18-2.04-1.16.4-.63,1.08-.51,1.68-.7.87-.28,1.75-.68,2.58-1.02.24-.1.64-.09.9-.15l.08-.3c-.95-.52-2.14-.08-3.16-.19-.77-.08-1.6-.53-2.3-.7s-1.79-.18-2.48-.49c-.05-.02-.46-.7-.69-.9s-.79-.44-1.03-.65c-.87-.78-.03-2,.24-2.88.66-.26,1.55-1.41,2.1-1.61,1.22-.45,1.92,1.9,3.35.83.55-.41.27-.71.24-1.2-.03-.42.05-.77-.19-1.25-.28-.58-.74-1.23-1.09-1.72-.48-.67-.81-1.39-1.21-2.08.06-1.71-.71-3.96-.09-5.54.2-.51,1.39-2.61,1.74-2.93.13-.12.39-.16.53-.3,2.39-2.35,5.13-4.1,8.62-2.87.55.19.94.7,1.74.48,0,.03.45.4.48.42.37.17,1.85.13,1.92-.42.57.06,1.21.43,1.75.47.27.02.47-.13.76-.06.38.09.82.58,1.04.64,1.02.29,2.24.71,3.24,1.2.31.15,1.06.82,1.29.86.58.11,1.81.14,2.36-.03s1.02-.32,1.56-.48c.43-.12,1.04-.51,1.46-.45.09.01,1.4.52,1.57.6,1.06.5,2.21,1.72,3.22,2.17,1.11.49,2.23.46,3.35.6,1.03.13,1.14.68,1.83,1.05.33.18.76.22,1.05.4.69.44.95,1.09,1.87,1.48,1.46.62,2.94,1.12,4.26,2.09,1.12.82,2.21,2.22,3.35,3.24.17.15.49.2.6.36.18.28.24,1.06.44,1.36.46.7,1.71,2.02,2.33,2.7,1.15,1.27,3.51,1.38,5.15,1.21,1.1-.12,2.66-1.51,3.85-1.54.16,0,.79.09.92.13.82.29.52,2.53.8,2.92.25.35,2.05.77,2.52.58.08-.03,1.27-.89,1.33-.95.39-.41,1.31-2.33,1.43-2.89.16-.75.14-2.08.13-2.86s-.55-1.59-.86-2.25c-.2-.43-.84-2.19-1.04-2.43-.04-.05-.98-.59-1.06-.61-1.03-.21-.81.39-1.41.92-1.02.91-2.99,1.2-4.29.93-.42-.09-3.13-1.2-3.59-1.44-1.66-.85-1.36-1.24-1.97-2.7-.41-.97-1.27-1.82-1.81-2.74-.16-.27-.17-.67-.29-.85-.05-.07-1.21-1.02-1.29-1.05-.5-.2-1.3.25-1.71.55-.48.35-1.83,2.6-2.3.82-.28-1.05-.18-2.15.38-3.09.42-.69.72-.73,1.32-1.08,1.11-.65,1.7-1.28,3.09-1.11.3.04.49.21.72.24.92.1,1.35-.21,2.21.42.73.53,1.09,1.42,1.67,2.05.14.15.34.15.36.17.42.42.91.92,1.32,1.44.34.44.73,1.24,1.01,1.56.21.25.63.3.78.54.24.38.2,1.13.72,1.56.2.17,1.34.49,1.63.52.36.04-.05-.78-.08-.81-.09-.08-.61.03-.86-.04-.59-.17-.93-1.01-1.14-1.49-.29-.68-.3-.92-.5-1.59,0-.04,0-.09,0-.12l.41-.36c.44.39.52.67,1.03.95.7.39,1.52.44,2.16.96v.12c-.03.84.38.53.65.84.3.34.06.75.9.47-.12,1.24-1.62-.68-1.77,1,.03.15.31.34.45.38.21.06,1.36.17,1.61.16.53-.01,1.1-.33,1.6-.44.16-.04.38.09.63.05.11-.02.87-.32.95-.38.45-.35.4-1.15.58-1.58.14-.35.71-.83.92-1.24.64-1.3.43-2.8.31-4.18-.22.1-.41.59-.45.81-.16.86.18,1.61-.3,2.46-.11.19-.86.79-1.05.86-.24.09-.59.02-.72.12-.21.14-.05,1.13-1.26.56-.38-.3.06-.76-.1-.98-.14-.18-.55.04-.91-.47-.11-.16-.18-.49-.3-.6-.18-.17-.47-.08-.67-.29-.13-.14-.26-.58-.35-.78-.21,0-.15.32-.35.42-.58.3-.5-.23-.64-.39-.05-.05-.21-.02-.27-.07-.27-.24-.5-.6-.89-.67v-.12c-.15-1.06-.22-1.3,1-1.57.05.33.49.69.56.81.14.27.08.74.36.87-.02-.33.21-.69,0-.99-.08-.11-.28-.11-.34-.28-.45-1.25.31-1.91.69-2.98.21-.28.34-.06.49-.05l.48.36c.11-.4-.34-.45-.36-.48h.02ZM71.05,15.08c.06.13.47,1.48.48,1.56.05.5-.32,1.69-.24,2.57.12,1.22.51.57.6-.24.06-.58,0-1.82-.12-2.33-.14-.62-.27-1-.48-1.56s-.78-1.39-.81-1.52c-.16-.56.02-1.05-.8-1.35-.01.3.01.95.12,1.2.13.3,1.03,1.16,1.26,1.68h-.01ZM68.78,15.56c.01.21-.04.43.03.63.08.26.55.5.46.93.37-.13.22-.6.11-.86-.09-.22-.26-.01-.23-.69.04-.81.28-1.65-.48-2.28.15.76.08,1.52.12,2.28h0ZM11.72,25.4s-.53-.35-.58-.57c-.87.05-1,1.18-.48,1.8.85,1.02,2.9,1.93,4.22,1.59.83-.21,1.66-2.4,2.64-2.11.38.14.29.57.46.86.37.66,1.51,1.86,2.15,2.28.88.57,3.11,1.42,4.12,1.26,1.51-.24,1.93-.26,3.22-1.09.67-.43,1.54-.92,2.17-1.42.26-.21,1.39-1.36.87-1.59-.79-.19-.72.37-.99.75-.59.84-2.55,1.09-3.38,1.77l-2.61.64c-1.28-.56-3.18-1.49-3.82-2.77-.14-.28-.13-.58-.26-.82-.09-.16-.8-.73-1-.79-.53-.16-1.42-.1-1.92.12-.05.02-.91.65-.96.71-.37.41-.29.99-.65,1.38-.75.81-2.32.11-2.88-.6-.62-.78-.22-1.25-.32-1.42v.02ZM42.34,26.41c-.67-.66-.42-1.67-1.95-1.15-.07.91,1.16,1.11,1.73,1.55.19.14.24.39.38.49.35.24,1.11.27,1.42.47.41.26.27.92.48,1.32.06.12,1.4,1.04,1.58,1.06.41.06,1.03-.21,1.46-.22.12-.79-.94-.99-1.47-1.33-.31-.2-.65-.58-.93-.75-.77-.46-2.06-.79-2.7-1.43h0ZM36.15,30.33c-.37.03-.73-.37-.99-.41-.13-.02-1.02-.02-1.19-.01-1.05.05-2.11.84-.82,1.55.76.42,1.79-.21,2.03.13.11.16-.08,1.38-.22,1.53-.2.22-1.53.68-1.89.69l-.12.42c.83.07,2.98-.64,3.41-1.32.37-.59.07-.75.06-1.26,0-.33.17-.67,0-1.03,0,0-.27-.29-.27-.29ZM14.66,35.52c.53.58,1.91.74,2.65.63.94-.15,2.56-1.76,2.59-2.69.03-1.04-1.25-1.38-1.7-2.27-1.51-.55-3.06.37-4.17,1.33.2.99.88.08,1.26-.18.55-.37,1.09-.49,1.75-.35.62.13,1.64,1.27,1.53,1.94-.06.35-1.29,1.6-1.74,1.61-.12,0-1.19-.44-1.23-.49-.16-.18-.15-.9-.15-1.17-.83-.04-1.36,1.02-.8,1.64h0ZM17.49,34.23c.51-1-1.09-1.03-1.68-.66.72-.04,1.07.57,1.68.66ZM10.98,35.63c1.23-1.04-1.59-2.13-1.75-1.99-.05.34.48.47.49.78,0,.33-.5.34-.72.43-.05,1.04,1.26,1.4,1.99.79h0ZM39.5,38.82c-.04-.06-.7-.72-.76-.73-1.51-.44-2.65.89-.66,1.19l.03.98c-.87.34-1.7.52-2.65.43-.08.44.26.81.66.96.62-.17,1.19.04,1.81-.23.07-.03,1.21-.86,1.26-.92.11-.16.07-.48.14-.67.13-.35.55-.42.17-1.01ZM30.55,38.91c-.54-.12-.48.39-.64.56-.59.62-1.44,1.16-2.3,1.24-.54.05-2.06-.17-2.33.19-.39.53.06.93.57,1.09,1.01.32,2.58.18,3.57-.2.25-.09,1.13-.53,1.13-.79v-2.1h0ZM23.24,40.22c-.58-.06-2.38,0-2.51.66-.27,1.38.91,1.59,1.79.83.18-.15.82-1.4.72-1.49Z"/>
    <path class="cls-21" d="M51.68,51.44c.1.08.29.06.44.21.78.8,1.19,2.26.06,2.94-.07.04-.94.43-.99.45-.24.06-1.73.02-2.07-.02-.75-.08-2.56-.98-3.34-1.34-.25-.12-.65-.55-.94-.62-.45-.11-1.12-.02-1.62-.18-.78-.25-1.28-.87-1.73-1.51-.15-.21-.21-.61-.31-.71-.14-.14-1.05-.67-1.26-.71-1.22-.22-1.37-.2-2.48-.87-.8-.49-1.13-1.3-.3-1.98.49-.4,1.35-.36,1.97-.29.97.11,2.85.66,3.65,1.26,1.1.81,1,2.36,2.82,2.08,1.66-.25,2.92-.38,4.58.22.7.25,1.03.65,1.51,1.06h0Z"/>
    <path class="cls-24" d="M16.42,16.27s.14-.21.04-.45c-.11-.25-.54-.77-.74-1.07-.1-.15-.1-.41-.17-.49-.11-.12-.42-.08-.54-.18-.17-.14-.24-.86-.87-.75.23.25.38,1.27.12,1.45-1.36.26-2.51-.03-2.14-1.66.28-1.24,2.28-.96,3.08-.38l1.44,1.67c.07.12.24-.11.24-.12v-2.51c0-.87-1.64-2.21-2.04-.78.73-.17,1.31-.14.97.76-.13.2-.89.28-1.06.17-.06-.04-.08-.25-.2-.34-.35-.25-.8-.34-.87-.91-.09-.83,1.67-1.6,2.36-1.43.56.14,1.52.9,1.55,1.55l.24.07c.22-.91,1.42-1.73,2.33-1.67.08,0,1.12.62,1.16.67.84,1.32-1.97,3.32-1.93,1.12,1.62.26,1.3-1.03-.07-.49-1.56.62-.97,2.65-.89,3.96.37.32,1.58-1.53,1.83-1.76.05-.05.83-.6.89-.61,1.28-.38,2.34.61,1.92,1.92-.16.5-.95.92-1.43.79s-.53-1.13-.86-1.06c-.14.03-2.02,1.89-2.07,2.11-.03.14.1.31.09.4-.06.55-1.54.59-1.92.42-.03-.01-.47-.39-.48-.42l.02.02ZM22.4,13.17c-.32-.09-.87-.32-.95.17.21.25.4.48.76.43l.19-.6Z"/>
    <path class="cls-9" d="M68.9,19.51c.36.51.77.29.91.47.16.21-.29.68.1.98,1.21.57,1.05-.42,1.26-.56.13-.09.49-.03.72-.12.19-.07.95-.67,1.05-.86.48-.85.14-1.61.3-2.46.04-.21.23-.7.45-.81.13,1.38.33,2.88-.31,4.18-.2.41-.78.89-.92,1.24-.17.43-.13,1.23-.58,1.58-.08.06-.83.36-.95.38-.25.04-.47-.08-.63-.05-.5.11-1.07.43-1.6.44-.25,0-1.4-.1-1.61-.16-.14-.04-.42-.23-.45-.38.16-1.68,1.65.24,1.77-1-.85.28-.61-.13-.9-.47-.27-.32-.68,0-.65-.84.37.05.6.6.93.7s.47-.1.51-.1c.1,0,1.09.27.96-.18-.02-.06-.47-.3-.55-.3-.33-.04-.38.23-.41.24-.46.17-.76-.89-1.24-.72-.05,0-.19.21-.2.24-.63-.52-1.45-.57-2.16-.96l.22-.13-.1-.35s.14-.04.21.03c.09.09.01.36.23.44.26.1.65-.14.94-.12s.54.28.87.34c.34.06.72-.03,1.03.05.34.09.84.84,1.34.81.19-.46-.44-.84-.66-1.14-.09-.12-.08-.24-.11-.3l.24-.12h-.01Z"/>
    <path class="cls-6" d="M65.42,16.99v.12c.04.23-.01.38.12.63.03.06.81.86.87.89.15.08.56.01.82.08.32.08.43.27.68.4.44.22.33-.16.75.51.03.06.03.18.11.3.22.3.85.68.66,1.14-.5.03-1.01-.72-1.34-.81-.31-.09-.68,0-1.03-.05-.32-.06-.56-.33-.87-.34s-.68.22-.94.12c-.22-.08-.14-.35-.23-.44-.06-.07-.19-.02-.21-.03-.65-.6-2.01-1.15-1.32-2.15-.26-.04-.51.08-.76.07-.12,0-.87,0-.8-.25.46-.47,1.15-.12,1.61-.18.25-.04.88-.47,1.07-.46.27.02.48.46.8.46h0Z"/>
    <path class="cls-13" d="M17.01,8.61c-1.07.21-.8-.62-1.32-1.25-.93-1.13-1.63-.02-1.43.18,1-.15,1.41.34.72,1.14-.93.06-2.12-.97-1.62-1.98.15-.31,1.33-.92,1.69-.96.49-.05,1.57.73,1.79,1.19.27.57.16,1.07.17,1.68Z"/>
    <path class="cls-19" d="M21.81,8.01l-.14-.58c-.84-.15-1.81.51-1.91,1.41h-.39c-.3-.11-.23-.8-.14-1.07.02-.06.65-1,.69-1.04.14-.13,1.26-.48,1.5-.43,1.9.42,1.98,2.36.18,2.66-1.13.19-1.55-1.32.21-.94h0Z"/>
    <path class="cls-22" d="M60.39,17.83v-.48s.93.15,1.05.21c.29.14.39.69.98.51v-.34h.6c.13.41-.22.34-.3.46-.17.27.4.83.54,1.2,0,.03,0,.08,0,.12-.59.39-.89-.11-1.32-.24-.22-.57-.85-1.59-1.56-1.44h.01Z"/>
    <path class="cls-11" d="M68.3,12.68s.47.08.36.48l-.48-.36s.07-.1.12-.12Z"/>
    <path class="cls-15" d="M11.72,25.4c.09.16-.3.64.32,1.42.57.72,2.13,1.42,2.88.6.36-.39.29-.97.65-1.38.06-.06.91-.69.96-.71.5-.22,1.39-.28,1.92-.12.2.06.91.62,1,.79.13.24.12.54.26.82.65,1.29,2.55,2.22,3.82,2.77l2.61-.64c.83-.68,2.79-.94,3.38-1.77.27-.38.19-.94.99-.75.52.23-.6,1.38-.87,1.59-.63.5-1.5.99-2.17,1.42-1.3.83-1.71.85-3.22,1.09-1.01.16-3.23-.69-4.12-1.26-.65-.42-1.78-1.62-2.15-2.28-.17-.3-.08-.73-.46-.86-.98-.29-1.81,1.9-2.64,2.11-1.32.34-3.37-.57-4.22-1.59-.52-.62-.39-1.76.48-1.8.05.22.56.53.58.57v-.02Z"/>
    <path class="cls-8" d="M14.66,35.52c-.56-.62-.03-1.68.8-1.64,0,.27-.01.99.15,1.17.04.05,1.12.5,1.23.49.45,0,1.68-1.26,1.74-1.61.11-.67-.91-1.82-1.53-1.94-.66-.14-1.2-.02-1.75.35-.38.26-1.06,1.17-1.26.18,1.11-.95,2.66-1.87,4.17-1.33.45.88,1.73,1.23,1.7,2.27-.03.93-1.65,2.54-2.59,2.69-.74.12-2.12-.04-2.65-.63h-.01Z"/>
    <path class="cls-12" d="M36.15,30.33l.27.29c.18.36,0,.7,0,1.03,0,.51.31.67-.06,1.26-.43.68-2.58,1.39-3.41,1.32l.12-.42c.36,0,1.68-.47,1.89-.69.14-.15.33-1.38.22-1.53-.24-.34-1.27.29-2.03-.13-1.29-.71-.23-1.5.82-1.55.17,0,1.06,0,1.19.01.26.03.61.43.99.41Z"/>
    <path class="cls-20" d="M30.55,38.91v2.1c0,.25-.88.69-1.13.79-.99.37-2.56.51-3.57.2-.5-.16-.95-.56-.57-1.09.26-.36,1.79-.14,2.33-.19.86-.08,1.71-.62,2.3-1.24.16-.16.1-.68.64-.56h0Z"/>
    <path class="cls-9" d="M42.34,26.41c.64.64,1.93.97,2.7,1.43.28.17.62.54.93.75.53.34,1.59.55,1.47,1.33-.43.02-1.05.28-1.46.22-.18-.03-1.52-.95-1.58-1.06-.21-.39-.07-1.06-.48-1.32-.31-.19-1.07-.23-1.42-.47-.14-.1-.2-.35-.38-.49-.58-.44-1.8-.64-1.73-1.55,1.53-.52,1.29.49,1.95,1.15h0Z"/>
    <path class="cls-15" d="M39.5,38.82c.39.59-.04.66-.17,1.01-.07.19-.03.51-.14.67-.04.06-1.19.89-1.26.92-.62.27-1.19.06-1.81.23-.4-.15-.74-.52-.66-.96.95.09,1.78-.09,2.65-.43l-.03-.98c-2-.31-.86-1.64.66-1.19.06.02.72.67.76.73Z"/>
    <path class="cls-4" d="M61.95,19.27c.43.13.73.63,1.32.24.2.67.21.92.5,1.59.21.48.55,1.32,1.14,1.49.24.07.77-.04.86.04.04.03.45.86.08.81-.29-.03-1.43-.36-1.63-.52-.51-.42-.48-1.18-.72-1.56-.15-.24-.56-.29-.78-.54-.28-.32-.67-1.13-1.01-1.56.07.01.18-.02.24,0h0Z"/>
    <path class="cls-9" d="M23.24,40.22c.1.09-.55,1.34-.72,1.49-.88.76-2.06.55-1.79-.83.13-.66,1.93-.72,2.51-.66Z"/>
    <path class="cls-9" d="M10.98,35.63c-.72.61-2.03.25-1.99-.79.22-.08.72-.1.72-.43,0-.3-.53-.43-.49-.78.16-.14,2.98.95,1.75,1.99h0Z"/>
    <path class="cls-23" d="M65.42,17.11c.39.08.62.43.89.67.06.05.22.02.27.07.14.16.06.7.64.39.2-.11.15-.42.35-.42.1.2.22.64.35.78.2.21.48.12.67.29.12.11.19.44.3.6l-.24.12c-.42-.67-.31-.29-.75-.51-.25-.12-.36-.32-.68-.4-.26-.07-.67,0-.82-.08-.05-.03-.84-.84-.87-.89-.13-.26-.08-.41-.12-.63h.01Z"/>
    <path class="cls-7" d="M71.77,16.63c.12.51.18,1.75.12,2.33-.08.81-.48,1.46-.6.24-.09-.89.28-2.08.24-2.57h.24Z"/>
    <path class="cls-17" d="M71.29,15.08h-.24c-.23-.52-1.12-1.38-1.26-1.68-.11-.25-.13-.9-.12-1.2.82.31.64.79.8,1.35.04.13.61.98.81,1.52h.01Z"/>
    <path class="cls-11" d="M69.14,15.56h-.36c-.04-.76.03-1.52-.12-2.28.76.63.52,1.47.48,2.28Z"/>
    <path class="cls-2" d="M17.49,34.23c-.61-.09-.95-.69-1.68-.66.59-.37,2.19-.34,1.68.66Z"/>
    <path class="cls-1" d="M68.3,21.42v.24s-.2.2-.51.1-.55-.65-.93-.7v-.12s.15-.24.2-.24c.48-.17.78.89,1.24.72Z"/>
    <path class="cls-10" d="M61.95,19.27c-.06-.02-.16.01-.24,0-.41-.52-.9-1.01-1.32-1.44.71-.16,1.34.86,1.56,1.44Z"/>
    <path class="cls-3" d="M69.14,15.56c-.03.68.14.48.23.69.11.27.27.73-.11.86.1-.42-.37-.67-.46-.93-.07-.21-.01-.42-.03-.63h.37Z"/>
    <path class="cls-16" d="M71.29,15.08c.21.56.34.94.48,1.56h-.24c0-.08-.42-1.42-.48-1.56,0,0,.24,0,.24,0Z"/>
    <path class="cls-18" d="M22.4,13.17l-.19.6c-.36.05-.56-.18-.76-.43.08-.49.63-.26.95-.17Z"/>
    <path class="cls-5" d="M68.3,21.42s.08-.28.41-.24c.08,0,.53.24.55.3.13.45-.86.18-.96.18,0,0,0-.24,0-.24Z"/>
  </g>
</svg>